{"title":"White Bird in a Blizzard 2014 HDRip XviD AC3-GiANGi ","uid":11107037,"size":1165965312,"categoryP":"video","categoryS":"movies","magnet":"?xt=urn:btih:18e625103ea6f5de63b6bf104a31c2871df1c07e&amp;dn=White+Bird+in+a+Blizzard+2014+HDRip+XviD+AC3-GiANGi+&amp;tr=udp%3A%2F%2Ftracker.openbittorrent.com%3A80&amp;tr=udp%3A%2F%2Fopen.demonii.com%3A1337&amp;tr=udp%3A%2F%2Ftracker.coppersurfer.tk%3A6969&amp;tr=udp%3A%2F%2Fexodus.desync.com%3A6969","seeders":19,"leechers":1,"uploader":"HeroMaster","files":-1,"time":1411739278,"description":":::::::::: GiANGi PRESENTS :::::::::\n\n\n:::: White Bird in a Blizzard 2014 HDRip XviD AC3 ::::\n\n\n::Information::\n\n\nGeneral\nFormat                           : AVI\nFormat/Info                      : Audio Video Interleave\nFile size                        : 1.09 GiB\nDuration                         : 1h 31mn\nOverall bit rate                 : 1 703 Kbps\n\n\nVideo\nID                               : 0\nFormat                           : MPEG-4 Visual\nFormat profile                   : Advanced Simple@L5\nFormat settings, BVOP            : 1\nFormat settings, QPel            : No\nFormat settings, GMC             : No warppoints\nFormat settings, Matrix          : Default (H.263)\nCodec ID                         : XVID\nCodec ID/Hint                    : XviD\nDuration                         : 1h 31mn\nBit rate                         : 1 310 Kbps\nWidth                            : 720 pixels\nHeight                           : 304 pixels\nDisplay aspect ratio             : 2.35:1\nFrame rate                       : 23.976 fps\nColor space                      : YUV\nChroma subsampling               : 4:2:0\nBit depth                        : 8 bits\nScan type                        : Progressive\nCompression mode                 : Lossy\nBits/(Pixel*Frame)               : 0.250\nStream size                      : 855 MiB (77%)\nWriting library                  : XviD 73\n\n\nAudio\nID                               : 1\nFormat                           : AC-3\nFormat/Info                      : Audio Coding 3\nMode extension                   : CM (complete main)\nCodec ID                         : 2000\nDuration                         : 1h 31mn\nBit rate mode                    : Constant\nBit rate                         : 384 Kbps\nChannel(s)                       : 6 channels\nChannel positions                : Front: L C R, Side: L R, LFE\nSampling rate                    : 48.0 KHz\nBit depth                        : 16 bits\nCompression mode                 : Lossy\nStream size                      : 251 MiB (23%)\nAlignment                        : Split accross interleaves\nInterleave, duration             : 42 ms (1.00 video frame)\nInterleave, preload duration     : 500 ms\n\n\n::IMDB::\n\n &lt;a href=&quot;\nhttp://imdb.com/title/tt2238050/&quot; rel=&quot;nofollow&quot; target=&quot;_NEW&quot;&gt;\nhttp://imdb.com/title/tt2238050/&lt;/a&gt;\n\n\n::Poster::\n\n &lt;a href=&quot;\nhttp://i.imgur.com/Yc0pLo5.jpg&quot; rel=&quot;nofollow&quot; target=&quot;_NEW&quot;&gt;\nhttp://i.imgur.com/Yc0pLo5.jpg&lt;/a&gt;\n\n\n::Screenshots::\n\n &lt;a href=&quot;\nhttp://i.imgur.com/aOI8oxR.jpg&quot; rel=&quot;nofollow&quot; target=&quot;_NEW&quot;&gt;\nhttp://i.imgur.com/aOI8oxR.jpg&lt;/a&gt;\n\n\nSEED AND ENJOY!","torrent":{"xt":"urn:btih:18e625103ea6f5de63b6bf104a31c2871df1c07e","amp;dn":"White+Bird+in+a+Blizzard+2014+HDRip+XviD+AC3-GiANGi+","amp;tr":["udp%3A%2F%2Ftracker.openbittorrent.com%3A80","udp%3A%2F%2Fopen.demonii.com%3A1337","udp%3A%2F%2Ftracker.coppersurfer.tk%3A6969","udp%3A%2F%2Fexodus.desync.com%3A6969"],"infoHash":"18e625103ea6f5de63b6bf104a31c2871df1c07e","infoHashBuffer":{"type":"Buffer","data":[24,230,37,16,62,166,245,222,99,182,191,16,74,49,194,135,29,241,192,126]},"announce":[],"urlList":[]}}